<svg width="64" height="48" viewBox="0 0 64 48" fill="none" xmlns="http://www.w3.org/2000/svg">
<path d="M58 48H6C2.68625 48 0 45.3138 0 42V6C0 2.68625 2.68625 0 6 0H58C61.3138 0 64 2.68625 64 6V42C64 45.3138 61.3138 48 58 48ZM14 7C10.134 7 7 10.134 7 14C7 17.866 10.134 21 14 21C17.866 21 21 17.866 21 14C21 10.134 17.866 7 14 7ZM8 40H56V26L45.0606 15.0606C44.4749 14.4749 43.5251 14.4749 42.9393 15.0606L26 32L19.0606 25.0606C18.4749 24.4749 17.5251 24.4749 16.9393 25.0606L8 34V40Z" fill="black"/>
</svg>
